<svg width="34" height="32" viewBox="0 0 34 32" fill="none" xmlns="http://www.w3.org/2000/svg">
<path d="M2.42859 9.52364C2.42859 8.01488 2.42859 7.2605 2.67507 6.66543C3.00372 5.87201 3.63409 5.24164 4.42752 4.91299C5.02259 4.6665 5.77697 4.6665 7.28573 4.6665V4.6665H26.7143V4.6665C28.2231 4.6665 28.9774 4.6665 29.5725 4.91299C30.3659 5.24164 30.9963 5.87201 31.325 6.66543C31.5714 7.2605 31.5714 8.01488 31.5714 9.52365V22.476C31.5714 23.9848 31.5714 24.7392 31.325 25.3342C30.9963 26.1277 30.3659 26.758 29.5725 27.0867C28.9774 27.3332 28.2231 27.3332 26.7143 27.3332V27.3332H7.28573V27.3332C5.77697 27.3332 5.02259 27.3332 4.42752 27.0867C3.63409 26.758 3.00372 26.1277 2.67507 25.3342C2.42859 24.7392 2.42859 23.9848 2.42859 22.476V9.52364Z" stroke="#29363A" stroke-width="3" stroke-linejoin="round"/>
<path d="M4.04761 6.28564L14.8677 15.7532C16.0885 16.8215 17.9114 16.8215 19.1323 15.7532L29.9524 6.28564" stroke="#29363A" stroke-width="3" stroke-linecap="round" stroke-linejoin="round"/>
</svg>
