<svg width="32" height="32" viewBox="0 0 32 32" fill="none" xmlns="http://www.w3.org/2000/svg">
<path d="M4 8.66667C4 19.3442 12.6558 28 23.3333 28C24.2214 28 25.0954 27.9401 25.9516 27.8242C27.1662 27.6598 28 26.5723 28 25.3466V21.922C28 20.7742 27.2655 19.7552 26.1766 19.3922L21.9789 17.993C20.9114 17.6371 19.767 18.2654 19.4941 19.3569C19.1299 20.8135 17.316 21.316 16.2543 20.2543L11.7457 15.7457C10.684 14.684 11.1865 12.8701 12.6431 12.5059C13.7346 12.233 14.3629 11.0886 14.007 10.0211L12.6078 5.82339C12.2448 4.73448 11.2258 4 10.078 4H6.65339C5.42774 4 4.34024 4.83378 4.1758 6.04835C4.05987 6.9046 4 7.77864 4 8.66667Z" stroke="#29363A" stroke-width="3" stroke-linejoin="round"/>
</svg>
