<svg width="32" height="33" viewBox="0 0 32 33" fill="none" xmlns="http://www.w3.org/2000/svg">
<g clip-path="url(#clip0_94_2019)">
<path d="M16 0.75C7.16352 0.75 0 7.91352 0 16.75C0 24.2534 5.16608 30.5497 12.135 32.279V21.6396H8.83584V16.75H12.135V14.6431C12.135 9.19736 14.5997 6.6732 19.9462 6.6732C20.96 6.6732 22.7091 6.87224 23.4246 7.07064V11.5026C23.047 11.463 22.391 11.4431 21.5763 11.4431C18.953 11.4431 17.9392 12.437 17.9392 15.0207V16.75H23.1654L22.2675 21.6396H17.9392V32.6329C25.8618 31.6761 32.0006 24.9305 32.0006 16.75C32 7.91352 24.8365 0.75 16 0.75Z" fill="#DDD8C9"/>
</g>
<defs>
<clipPath id="clip0_94_2019">
<rect width="32" height="32" fill="white" transform="translate(0 0.75)"/>
</clipPath>
</defs>
</svg>
