<svg width="33" height="33" viewBox="0 0 33 33" fill="none" xmlns="http://www.w3.org/2000/svg">
<g clip-path="url(#clip0_94_2021)">
<path d="M16.3333 3.63125C20.6083 3.63125 21.1145 3.65 22.7958 3.725C24.3583 3.79375 25.202 4.05625 25.7645 4.275C26.5083 4.5625 27.0458 4.9125 27.602 5.46875C28.1645 6.03125 28.5083 6.5625 28.7958 7.30625C29.0145 7.86875 29.277 8.71875 29.3458 10.275C29.4208 11.9625 29.4395 12.4688 29.4395 16.7375C29.4395 21.0125 29.4208 21.5188 29.3458 23.2C29.277 24.7625 29.0145 25.6063 28.7958 26.1688C28.5083 26.9125 28.1583 27.45 27.602 28.0063C27.0395 28.5688 26.5083 28.9125 25.7645 29.2C25.202 29.4188 24.352 29.6813 22.7958 29.75C21.1083 29.825 20.602 29.8438 16.3333 29.8438C12.0583 29.8438 11.552 29.825 9.87075 29.75C8.30825 29.6813 7.4645 29.4188 6.902 29.2C6.15825 28.9125 5.62075 28.5625 5.0645 28.0063C4.502 27.4438 4.15825 26.9125 3.87075 26.1688C3.652 25.6063 3.3895 24.7563 3.32075 23.2C3.24575 21.5125 3.227 21.0063 3.227 16.7375C3.227 12.4625 3.24575 11.9563 3.32075 10.275C3.3895 8.7125 3.652 7.86875 3.87075 7.30625C4.15825 6.5625 4.50825 6.025 5.0645 5.46875C5.627 4.90625 6.15825 4.5625 6.902 4.275C7.4645 4.05625 8.3145 3.79375 9.87075 3.725C11.552 3.65 12.0583 3.63125 16.3333 3.63125ZM16.3333 0.75C11.9895 0.75 11.4458 0.76875 9.7395 0.84375C8.0395 0.91875 6.87075 1.19375 5.85825 1.5875C4.802 2 3.90825 2.54375 3.02075 3.4375C2.127 4.325 1.58325 5.21875 1.17075 6.26875C0.777002 7.2875 0.502002 8.45 0.427002 10.15C0.352002 11.8625 0.333252 12.4062 0.333252 16.75C0.333252 21.0938 0.352002 21.6375 0.427002 23.3438C0.502002 25.0438 0.777002 26.2125 1.17075 27.225C1.58325 28.2813 2.127 29.175 3.02075 30.0625C3.90825 30.95 4.802 31.5 5.852 31.9062C6.87075 32.3 8.03325 32.575 9.73325 32.65C11.4395 32.725 11.9833 32.7437 16.327 32.7437C20.6708 32.7437 21.2145 32.725 22.9208 32.65C24.6208 32.575 25.7895 32.3 26.802 31.9062C27.852 31.5 28.7458 30.95 29.6333 30.0625C30.5208 29.175 31.0708 28.2813 31.477 27.2313C31.8708 26.2125 32.1458 25.05 32.2208 23.35C32.2958 21.6438 32.3145 21.1 32.3145 16.7563C32.3145 12.4125 32.2958 11.8688 32.2208 10.1625C32.1458 8.4625 31.8708 7.29375 31.477 6.28125C31.0833 5.21875 30.5395 4.325 29.6458 3.4375C28.7583 2.55 27.8645 2 26.8145 1.59375C25.7958 1.2 24.6333 0.925 22.9333 0.85C21.2208 0.76875 20.677 0.75 16.3333 0.75Z" fill="#DDD8C9"/>
<path d="M16.3333 8.53125C11.7958 8.53125 8.1145 12.2125 8.1145 16.75C8.1145 21.2875 11.7958 24.9688 16.3333 24.9688C20.8708 24.9688 24.552 21.2875 24.552 16.75C24.552 12.2125 20.8708 8.53125 16.3333 8.53125ZM16.3333 22.0812C13.3895 22.0812 11.002 19.6938 11.002 16.75C11.002 13.8063 13.3895 11.4187 16.3333 11.4187C19.277 11.4187 21.6645 13.8063 21.6645 16.75C21.6645 19.6938 19.277 22.0812 16.3333 22.0812Z" fill="#DDD8C9"/>
<path d="M26.7958 8.20635C26.7958 9.26885 25.9333 10.1251 24.877 10.1251C23.8145 10.1251 22.9583 9.2626 22.9583 8.20635C22.9583 7.14385 23.8208 6.2876 24.877 6.2876C25.9333 6.2876 26.7958 7.1501 26.7958 8.20635Z" fill="#DDD8C9"/>
</g>
<defs>
<clipPath id="clip0_94_2021">
<rect width="32" height="32" fill="white" transform="translate(0.333252 0.75)"/>
</clipPath>
</defs>
</svg>
