<svg width="32" height="33" viewBox="0 0 32 33" fill="none" xmlns="http://www.w3.org/2000/svg">
<g clip-path="url(#clip0_94_2022)">
<path d="M15.9998 13.8408V20.0372H24.6106C24.2325 22.0299 23.0978 23.7173 21.3961 24.8518L26.5888 28.8809C29.6142 26.0883 31.3597 21.9864 31.3597 17.1137C31.3597 15.9792 31.2579 14.8882 31.0687 13.841L15.9998 13.8408Z" fill="#DDD8C9"/>
<path d="M7.03298 19.7954L5.86183 20.6919L1.71631 23.921C4.34903 29.1427 9.74499 32.7501 15.9995 32.7501C20.3194 32.7501 23.9411 31.3246 26.5885 28.881L21.3958 24.8519C19.9703 25.8119 18.1521 26.3938 15.9995 26.3938C11.8395 26.3938 8.30507 23.5865 7.03952 19.8046L7.03298 19.7954Z" fill="#DDD8C9"/>
<path d="M1.71624 9.5791C0.625389 11.7317 0 14.1609 0 16.7499C0 19.339 0.625389 21.7681 1.71624 23.9207C1.71624 23.9352 7.03997 19.7898 7.03997 19.7898C6.71997 18.8298 6.53082 17.8117 6.53082 16.7497C6.53082 15.6878 6.71997 14.6697 7.03997 13.7097L1.71624 9.5791Z" fill="#DDD8C9"/>
<path d="M15.9998 7.1209C18.3562 7.1209 20.4507 7.93543 22.1235 9.50636L26.7052 4.9246C23.927 2.33555 20.3199 0.75 15.9998 0.75C9.74532 0.75 4.34903 4.34272 1.71631 9.5791L7.03987 13.71C8.30525 9.92816 11.8398 7.1209 15.9998 7.1209Z" fill="#DDD8C9"/>
</g>
<defs>
<clipPath id="clip0_94_2022">
<rect width="32" height="32" fill="white" transform="translate(0 0.75)"/>
</clipPath>
</defs>
</svg>
